<svg xmlns="http://www.w3.org/2000/svg" width="512" height="512" viewBox="0 0 512 512">
  <defs>
    <linearGradient id="g" x1="0" y1="0" x2="1" y2="1">
      <stop offset="0" stop-color="#8b6dff"/>
      <stop offset="1" stop-color="#5b3ee0"/>
    </linearGradient>
  </defs>
  <rect width="512" height="512" rx="112" fill="#0a0a0f"/>
  <rect x="24" y="24" width="464" height="464" rx="96" fill="url(#g)"/>
  <path d="M256 128a96 96 0 0 0-96 96v58l-23 36a16 16 0 0 0 13.6 24.5h210.8A16 16 0 0 0 375 318l-23-36v-58a96 96 0 0 0-96-96Z" fill="#fff"/>
  <path d="M217 386a40 40 0 0 0 78 0" fill="none" stroke="#fff" stroke-width="26" stroke-linecap="round"/>
</svg>
